<svg xmlns="http://www.w3.org/2000/svg" width="29" height="28" viewBox="0 0 29 28" fill="none">
  <g id="vuesax/outline/gallery-add">
    <g id="gallery-add">
      <path id="Vector" d="M11.1663 12.5417C9.39301 12.5417 7.95801 11.1067 7.95801 9.33333C7.95801 7.56 9.39301 6.125 11.1663 6.125C12.9397 6.125 14.3747 7.56 14.3747 9.33333C14.3747 11.1067 12.9397 12.5417 11.1663 12.5417ZM11.1663 7.875C10.3613 7.875 9.70801 8.52833 9.70801 9.33333C9.70801 10.1383 10.3613 10.7917 11.1663 10.7917C11.9713 10.7917 12.6247 10.1383 12.6247 9.33333C12.6247 8.52833 11.9713 7.875 11.1663 7.875Z" fill="#A23AF9"></path>
      <path id="Vector_2" d="M18.1667 26.5416H11.1667C4.83167 26.5416 2.125 23.8349 2.125 17.4999V10.4999C2.125 4.16492 4.83167 1.45825 11.1667 1.45825H15.8333C16.3117 1.45825 16.7083 1.85492 16.7083 2.33325C16.7083 2.81159 16.3117 3.20825 15.8333 3.20825H11.1667C5.78833 3.20825 3.875 5.12159 3.875 10.4999V17.4999C3.875 22.8783 5.78833 24.7916 11.1667 24.7916H18.1667C23.545 24.7916 25.4583 22.8783 25.4583 17.4999V11.6666C25.4583 11.1883 25.855 10.7916 26.3333 10.7916C26.8117 10.7916 27.2083 11.1883 27.2083 11.6666V17.4999C27.2083 23.8349 24.5017 26.5416 18.1667 26.5416Z" fill="#A23AF9"></path>
      <path id="Vector_3" d="M25.4582 6.70825H19.0415C18.5632 6.70825 18.1665 6.31159 18.1665 5.83325C18.1665 5.35492 18.5632 4.95825 19.0415 4.95825H25.4582C25.9365 4.95825 26.3332 5.35492 26.3332 5.83325C26.3332 6.31159 25.9365 6.70825 25.4582 6.70825Z" fill="#A23AF9"></path>
      <path id="Vector_4" d="M22.25 9.91667C21.7717 9.91667 21.375 9.52 21.375 9.04167V2.625C21.375 2.14667 21.7717 1.75 22.25 1.75C22.7283 1.75 23.125 2.14667 23.125 2.625V9.04167C23.125 9.52 22.7283 9.91667 22.25 9.91667Z" fill="#A23AF9"></path>
      <path id="Vector_5" d="M3.78071 22.9833C3.50071 22.9833 3.22071 22.8433 3.05737 22.5983C2.78904 22.2017 2.89404 21.6533 3.29071 21.385L9.04237 17.5233C10.3024 16.6833 12.0407 16.7767 13.184 17.745L13.569 18.0833C14.1524 18.585 15.144 18.585 15.7157 18.0833L20.569 13.9183C21.8174 12.8567 23.754 12.8567 25.0024 13.9183L26.904 15.5517C27.2657 15.8667 27.3124 16.415 26.9974 16.7883C26.6824 17.15 26.134 17.1967 25.7607 16.8817L23.859 15.2483C23.2757 14.7467 22.284 14.7467 21.7124 15.2483L16.859 19.4133C15.6224 20.475 13.674 20.475 12.4257 19.4133L12.0407 19.075C11.504 18.62 10.6174 18.5733 10.0224 18.9817L4.28237 22.8433C4.11904 22.9367 3.94404 22.9833 3.78071 22.9833Z" fill="#A23AF9"></path>
    </g>
  </g>
</svg>
